<?xml version="1.0" encoding="UTF-8" standalone="no"?>
<svg
   width="16"
   height="16"
   fill="#0d6efd"
   viewBox="0 0 16 16"
   version="1.1"
   id="svg2750"
   xmlns="http://www.w3.org/2000/svg"
   xmlns:svg="http://www.w3.org/2000/svg">
  <defs
     id="defs2754" />
  <path
     d="M 1.475,9.5003033 C 2.702,11.340303 4.779,13.371303 8,15.500303 c 3.221,-2.129 5.298,-4.16 6.525,-5.9999997 H 12 a 0.5,0.5 0 0 1 -0.464,-0.314 l -1.457,-3.642 -1.598,5.5929997 a 0.5,0.5 0 0 1 -0.945,0.049 l -1.647,-4.1179997 -1.473,2.21 A 0.5,0.5 0 0 1 4,9.5003033 Z"
     id="path2746" />
  <path
     d="m 0.88,8.5003033 c -3.307,-6.32 3.53,-10 6.943,-6.857 0.06,0.055 0.119,0.112 0.176,0.171 a 3.12,3.12 0 0 1 0.176,-0.17 c 3.415,-3.144 10.251,0.536 6.945,6.856 h -2.783 l -1.874,-4.686 a 0.5,0.5 0 0 0 -0.945,0.049 l -1.597,5.593 -1.457,-3.642 a 0.5,0.5 0 0 0 -0.88,-0.091 l -1.852,2.777 z"
     id="path2748" />
</svg>
